<svg xmlns="http://www.w3.org/2000/svg" xmlns:xlink="http://www.w3.org/1999/xlink" width="174" height="184.071" viewBox="0 0 174 184.071"><defs><style>.a{fill:#fff;}.b{fill:#1f1c1c;}.c,.d,.f,.g,.j{fill:none;}.c{stroke:#262857;stroke-miterlimit:10;}.c,.d,.f,.h{stroke-width:1.5px;}.d{stroke:#bbbbc7;stroke-linejoin:round;}.d,.f,.g{stroke-linecap:round;}.e{fill:url(#c);}.f,.g,.h{stroke:#fff;}.h{fill:url(#d);}.i{stroke:none;}.k{filter:url(#a);}</style><filter id="a" x="0" y="0" width="174" height="184.071" filterUnits="userSpaceOnUse"><feOffset dy="3" input="SourceAlpha"/><feGaussianBlur stdDeviation="3" result="b"/><feFlood flood-color="#6493a8" flood-opacity="0.161"/><feComposite operator="in" in2="b"/><feComposite in="SourceGraphic"/></filter><linearGradient id="c" x1="0.5" x2="0.5" y2="1" gradientUnits="objectBoundingBox"><stop offset="0" stop-color="#4258e3"/><stop offset="1" stop-color="#87f4fd"/></linearGradient><linearGradient id="d" x1="0.23" y1="1.077" x2="0.889" y2="0.13" gradientUnits="objectBoundingBox"><stop offset="0" stop-color="#87f4fd"/><stop offset="1" stop-color="#4258e3"/></linearGradient></defs><g transform="translate(-11 -149)"><g class="k" transform="matrix(1, 0, 0, 1, 11, 149)"><rect class="a" width="156" height="166.071" rx="10" transform="translate(9 6)"/></g><path class="b" d="M8.832,0V-9.864H7.6V-5.6H2.188V-9.864H.957V0h1.23V-4.491H7.6V0Zm4.72-6.2a1.9,1.9,0,0,1,1.894,2.037H11.583A2,2,0,0,1,13.552-6.2Zm1.866,4.163A1.716,1.716,0,0,1,13.655-.909a2.032,2.032,0,0,1-2.078-2.256v-.068h5.1v-.451c0-2.153-1.183-3.548-3.1-3.548-1.962,0-3.22,1.5-3.22,3.705,0,2.235,1.237,3.65,3.274,3.65a2.816,2.816,0,0,0,2.96-2.16ZM20.357-.889c-.854,0-1.422-.444-1.422-1.121s.547-1.094,1.5-1.155l1.9-.116V-2.7A1.871,1.871,0,0,1,20.357-.889ZM20.091.123a2.593,2.593,0,0,0,2.283-1.347H22.4V0h1.128V-4.915c0-1.415-1.053-2.317-2.721-2.317s-2.734.943-2.816,2.174H19.14a1.492,1.492,0,0,1,1.641-1.128c.984,0,1.559.52,1.559,1.388V-4.2L20.3-4.088c-1.641.1-2.577.861-2.577,2.078A2.136,2.136,0,0,0,20.091.123ZM25.241,0h1.189V-9.864H25.241ZM28.56-8.825v1.716H27.5v.978h1.06v4.286c0,1.367.506,1.9,1.812,1.9A4.238,4.238,0,0,0,31.123,0V-1a4.628,4.628,0,0,1-.492.034c-.608,0-.882-.294-.882-.943V-6.132H31.13v-.978H29.749V-8.825ZM32.6,0h1.189V-4.143A1.847,1.847,0,0,1,35.7-6.18a1.577,1.577,0,0,1,1.682,1.8V0h1.189V-4.594a2.4,2.4,0,0,0-2.5-2.639,2.354,2.354,0,0,0-2.256,1.258h-.027v-3.89H32.6Z" transform="translate(35 183)"/><g transform="translate(42.653 170.946)"><path class="c" d="M71.045,48.4h-9.34V39.119a1.394,1.394,0,0,0-1.394-1.394H50.447a1.394,1.394,0,0,0-1.394,1.394V48.4h-9.34a1.4,1.4,0,0,0-1.4,1.4v9.859a1.4,1.4,0,0,0,1.4,1.4h9.34v9.4a1.394,1.394,0,0,0,1.394,1.394h9.864a1.394,1.394,0,0,0,1.394-1.394v-9.4h9.34a1.4,1.4,0,0,0,1.4-1.4V49.8A1.4,1.4,0,0,0,71.045,48.4Z" transform="translate(-31.196 -5.36)"/><path class="d" d="M104.289,292.7q-.649,1.416-1.416,2.774C95.63,308.3,80.674,317.107,63.4,317.107c-24.367,0-44.121-17.521-44.121-39.135" transform="matrix(0.998, 0.07, -0.07, 0.998, 10.311, -197.753)"/><path class="d" d="M243.165,44.571c28.821-4.121,48.681,17.981,48.681,35.515" transform="translate(-188.124 -15.676) rotate(1)"/><circle class="d" cx="2.718" cy="2.718" r="2.718" transform="translate(96.686 84.463)"/></g><g transform="translate(-3.993 -11.993)"><rect class="e" width="28.62" height="63.845" rx="13" transform="translate(114.093 225.155) rotate(45)"/><line class="f" x2="9.907" y2="8.806" transform="translate(91.571 247.55)"/><path class="g" d="M0,0S5.132,2.874,10.368.485" transform="translate(119.596 236.682) rotate(180)"/><path class="g" d="M1.331,1.048,0,0" transform="translate(123.185 239.249) rotate(180)"/><g class="h" transform="translate(103.129 258.008)"><circle class="i" cx="13.209" cy="13.209" r="13.209"/><circle class="j" cx="13.209" cy="13.209" r="12.459"/></g><line class="f" x1="9.907" y2="23.116" transform="translate(111.385 259.659)"/></g></g></svg>