<svg xmlns="http://www.w3.org/2000/svg" xmlns:xlink="http://www.w3.org/1999/xlink" width="174" height="184.071" viewBox="0 0 174 184.071"><defs><style>.a{fill:#fff;}.b{fill:#1f1c1c;}.c{fill:#262857;}.d{fill:url(#c);}.e,.f,.g,.i{fill:none;}.e,.f{stroke:#bbbbc7;}.e,.g{stroke-linecap:round;}.e{stroke-linejoin:round;}.e,.f,.g{stroke-width:1.5px;}.g{stroke:#fff;}.h{stroke:none;}.j{filter:url(#a);}</style><filter id="a" x="0" y="0" width="174" height="184.071" filterUnits="userSpaceOnUse"><feOffset dy="3" input="SourceAlpha"/><feGaussianBlur stdDeviation="3" result="b"/><feFlood flood-color="#6493a8" flood-opacity="0.161"/><feComposite operator="in" in2="b"/><feComposite in="SourceGraphic"/></filter><linearGradient id="c" x1="0.803" y1="0.055" x2="0.126" y2="1.031" gradientUnits="objectBoundingBox"><stop offset="0" stop-color="#4258e3"/><stop offset="1" stop-color="#87f4fd"/></linearGradient></defs><g transform="translate(-190 -527)"><g class="j" transform="matrix(1, 0, 0, 1, 190, 527)"><rect class="a" width="156" height="166.071" rx="10" transform="translate(9 6)"/></g><path class="b" d="M8.832,0V-9.864H7.6V-5.6H2.188V-9.864H.957V0h1.23V-4.491H7.6V0Zm4.816.123c1.962,0,3.288-1.415,3.288-3.678S15.61-7.232,13.648-7.232s-3.295,1.408-3.295,3.678S11.679.123,13.648.123Zm0-1.046c-1.258,0-2.085-.957-2.085-2.632s.827-2.632,2.085-2.632,2.078.957,2.078,2.632S14.906-.923,13.648-.923ZM18.272,0h1.189V-4.457A1.629,1.629,0,0,1,21.089-6.18a1.35,1.35,0,0,1,1.456,1.415V0h1.189V-4.519A1.573,1.573,0,0,1,25.341-6.18a1.382,1.382,0,0,1,1.477,1.545V0h1.189V-4.908a2.176,2.176,0,0,0-2.317-2.324,2.379,2.379,0,0,0-2.229,1.354h-.027a1.99,1.99,0,0,0-2-1.354,2.125,2.125,0,0,0-2.017,1.258h-.027V-7.109H18.272ZM32.508-6.2A1.9,1.9,0,0,1,34.4-4.163H30.539A2,2,0,0,1,32.508-6.2Zm1.866,4.163A1.716,1.716,0,0,1,32.61-.909a2.032,2.032,0,0,1-2.078-2.256v-.068h5.1v-.451c0-2.153-1.183-3.548-3.1-3.548-1.962,0-3.22,1.5-3.22,3.705,0,2.235,1.237,3.65,3.274,3.65a2.816,2.816,0,0,0,2.96-2.16Z" transform="translate(214 561)"/><g transform="translate(289.022 565.187)"><g transform="translate(0 21.333)"><path class="c" d="M28.561,21.333c-4.284,0-7.821,3.979-9.252,5.856-1.431-1.878-4.969-5.856-9.252-5.856C4.511,21.333,0,26.431,0,32.7a11.87,11.87,0,0,0,3.732,8.785.8.8,0,0,0,.126.164L18.741,56.5a.8.8,0,0,0,1.137,0L35.255,41.125l.159-.154c.126-.119.25-.239.389-.393a.782.782,0,0,0,.143-.192A12.146,12.146,0,0,0,38.617,32.7C38.617,26.431,34.106,21.333,28.561,21.333Zm6.046,18.148a.749.749,0,0,0-.06.082c-.075.086-.158.163-.24.24l-15,14.987L5.179,40.69a.807.807,0,0,0-.187-.24A10.232,10.232,0,0,1,1.609,32.7c0-5.379,3.789-9.755,8.448-9.755,4.606,0,8.536,6.007,8.576,6.068a.837.837,0,0,0,1.353,0c.039-.06,3.97-6.068,8.576-6.068,4.658,0,8.448,4.376,8.448,9.755A10.522,10.522,0,0,1,34.607,39.481Z" transform="translate(2.67 -18.886)"/></g></g><g transform="translate(237 567.25)"><path class="d" d="M80,80,65,65V42.5H55V55L40,40,0,80v2.5H10v25H35v-15H45v15H70v-25H80Z" transform="translate(0 0)"/><path class="e" d="M66.294,316.313a38.577,38.577,0,0,1-7.881.794,39.225,39.225,0,0,1-20.053-5.521" transform="translate(179.124 306.021) rotate(161)"/><path class="e" d="M94.683,292.7q-.575,1.416-1.256,2.774A39.629,39.629,0,0,1,81.575,309.52" transform="translate(190.419 300.099) rotate(158)"/><g class="f" transform="matrix(-0.951, -0.309, 0.309, -0.951, 7.33, 38.804)"><circle class="h" cx="3.5" cy="3.5" r="3.5"/><circle class="i" cx="3.5" cy="3.5" r="2.75"/></g><line class="g" y2="19" transform="translate(66.5 83.25)"/><line class="g" x1="8" y2="8" transform="translate(17.5 58.25)"/><line class="g" y2="2" transform="translate(63.5 85.25)"/><line class="g" y2="9" transform="translate(63.5 90.25)"/></g></g></svg>