<svg xmlns="http://www.w3.org/2000/svg" xmlns:xlink="http://www.w3.org/1999/xlink" width="174" height="184.071" viewBox="0 0 174 184.071"><defs><style>.a{fill:#fff;}.b{fill:#1f1c1c;}.c,.d,.e,.g,.h,.i,.j,.k,.m{fill:none;}.c,.d,.e{stroke:#262857;}.c,.e,.g,.h,.i,.j{stroke-linecap:round;}.c,.g,.j{stroke-linejoin:round;}.c,.d,.e,.g,.i,.j,.k{stroke-width:1.5px;}.f{fill:url(#c);}.g,.h,.i{stroke:#fff;}.j,.k{stroke:#bbbbc7;}.l{stroke:none;}.n{filter:url(#a);}</style><filter id="a" x="0" y="0" width="174" height="184.071" filterUnits="userSpaceOnUse"><feOffset dy="3" input="SourceAlpha"/><feGaussianBlur stdDeviation="3" result="b"/><feFlood flood-color="#6493a8" flood-opacity="0.161"/><feComposite operator="in" in2="b"/><feComposite in="SourceGraphic"/></filter><linearGradient id="c" x1="0.964" x2="0.069" y2="1" gradientUnits="objectBoundingBox"><stop offset="0" stop-color="#4258e3"/><stop offset="1" stop-color="#87f4fd"/></linearGradient></defs><g transform="translate(-190 -338)"><g class="n" transform="matrix(1, 0, 0, 1, 190, 338)"><rect class="a" width="156" height="166.071" rx="10" transform="translate(9 6)"/></g><path class="b" d="M.287-2.317A2.564,2.564,0,0,0,3.076.232a2.7,2.7,0,0,0,2.9-2.98V-9.864H4.744v7.109c0,1.2-.588,1.853-1.675,1.853A1.454,1.454,0,0,1,1.511-2.317ZM10.79.123c1.962,0,3.288-1.415,3.288-3.678S12.752-7.232,10.79-7.232,7.5-5.824,7.5-3.555,8.822.123,10.79.123Zm0-1.046c-1.258,0-2.085-.957-2.085-2.632s.827-2.632,2.085-2.632,2.078.957,2.078,2.632S12.048-.923,10.79-.923ZM18.949.123c1.818,0,3.021-1.442,3.021-3.678s-1.21-3.678-3-3.678A2.521,2.521,0,0,0,16.693-5.92h-.027V-9.864H15.476V0h1.135V-1.2h.027A2.55,2.55,0,0,0,18.949.123Zm-.232-6.31c1.258,0,2.037,1.019,2.037,2.632S19.974-.923,18.717-.923c-1.2,0-2.058-1.046-2.058-2.632S17.513-6.187,18.717-6.187Z" transform="translate(214 372)"/><g transform="translate(-62 21.581)"><g class="c" transform="translate(290 376)"><rect class="l" width="31.5" height="43.419" rx="3"/><rect class="m" x="0.75" y="0.75" width="30" height="41.919" rx="2.25"/></g><g class="d" transform="translate(300.216 388.77)"><circle class="l" cx="5.534" cy="5.534" r="5.534"/><circle class="m" cx="5.534" cy="5.534" r="4.784"/></g><g class="c" transform="translate(297.662 401.541)"><path class="l" d="M8,0h.176a8,8,0,0,1,8,8v.514a0,0,0,0,1,0,0H0a0,0,0,0,1,0,0V8A8,8,0,0,1,8,0Z"/><path class="m" d="M7.106.75H9.07a6.356,6.356,0,0,1,6.356,6.356v0a.658.658,0,0,1-.658.658H1.408A.658.658,0,0,1,.75,7.106v0A6.356,6.356,0,0,1,7.106.75Z"/></g><line class="e" x2="7.662" transform="translate(301.919 381.534)"/></g><g transform="translate(-3 18)"><g transform="translate(242.522 380.589)"><path class="f" d="M-519.522-1470.8a5,5,0,0,1-5-5v-41a5,5,0,0,1,5-5h58a5,5,0,0,1,5,5v41a5,5,0,0,1-5,5Zm40.327-51.729v-1.416a5.607,5.607,0,0,0-5.6-5.6h-11.451a5.607,5.607,0,0,0-5.6,5.6v1.416h-4.04v-1.416a9.652,9.652,0,0,1,9.642-9.641h11.45a9.652,9.652,0,0,1,9.642,9.641v1.416Zm-22.653,0h0Z" transform="translate(525 1558.214)"/><line class="g" x2="23" transform="translate(6.978 59.911)"/><line class="g" x2="22" transform="translate(38.978 59.911)"/><line class="g" x2="10" transform="translate(43.978 35.661)"/><line class="g" x2="10" transform="translate(14.978 35.661)"/><rect class="g" width="8.041" height="9.931" transform="translate(30.458 54.999)"/></g><line class="h" y2="15" transform="translate(307.5 447.5)"/><line class="h" y2="1" transform="translate(305 448.5)"/><line class="h" y2="8" transform="translate(305 451.5)"/><line class="i" x2="3" transform="translate(275.5 440.5)"/></g><path class="j" d="M66.294,316.313a38.577,38.577,0,0,1-7.881.794,39.225,39.225,0,0,1-20.053-5.521" transform="translate(50.068 602.018) rotate(-113)"/><path class="j" d="M94.683,292.7q-.575,1.416-1.256,2.774A39.629,39.629,0,0,1,81.575,309.52" transform="translate(57.893 613.724) rotate(-116)"/><g class="k" transform="translate(304.651 412.002) rotate(-76)"><circle class="l" cx="3.5" cy="3.5" r="3.5"/><circle class="m" cx="3.5" cy="3.5" r="2.75"/></g></g></svg>