<svg xmlns="http://www.w3.org/2000/svg" xmlns:xlink="http://www.w3.org/1999/xlink" width="174" height="184.071" viewBox="0 0 174 184.071"><defs><style>.a{fill:#fff;}.b{fill:#1f1c1c;}.c{fill:#262857;}.d{stroke:rgba(0,0,0,0);fill:url(#c);}.e,.f,.g,.i{fill:none;}.e,.f{stroke:#bbbbc7;stroke-width:1.5px;}.e,.g{stroke-linecap:round;}.e{stroke-linejoin:round;}.g{stroke:#fff;}.h{stroke:none;}.j{filter:url(#a);}</style><filter id="a" x="0" y="0" width="174" height="184.071" filterUnits="userSpaceOnUse"><feOffset dy="3" input="SourceAlpha"/><feGaussianBlur stdDeviation="3" result="b"/><feFlood flood-color="#6493a8" flood-opacity="0.161"/><feComposite operator="in" in2="b"/><feComposite in="SourceGraphic"/></filter><linearGradient id="c" x1="0.724" x2="0.227" y2="1" gradientUnits="objectBoundingBox"><stop offset="0" stop-color="#4258e3"/><stop offset="1" stop-color="#87f4fd"/></linearGradient></defs><g transform="translate(-11 -716)"><g class="j" transform="matrix(1, 0, 0, 1, 11, 716)"><rect class="a" width="156" height="166.071" rx="10" transform="translate(9 6)"/></g><path class="b" d="M6.945-1.107H2.188V-9.864H.957V0H6.945ZM10.9-6.2a1.9,1.9,0,0,1,1.894,2.037H8.931A2,2,0,0,1,10.9-6.2Zm1.866,4.163A1.716,1.716,0,0,1,11-.909,2.032,2.032,0,0,1,8.924-3.165v-.068h5.1v-.451c0-2.153-1.183-3.548-3.1-3.548-1.962,0-3.22,1.5-3.22,3.705,0,2.235,1.237,3.65,3.274,3.65a2.816,2.816,0,0,0,2.96-2.16ZM17.7-.889c-.854,0-1.422-.444-1.422-1.121s.547-1.094,1.5-1.155l1.9-.116V-2.7A1.871,1.871,0,0,1,17.7-.889ZM17.438.123a2.593,2.593,0,0,0,2.283-1.347h.027V0h1.128V-4.915c0-1.415-1.053-2.317-2.721-2.317s-2.734.943-2.816,2.174h1.148a1.492,1.492,0,0,1,1.641-1.128c.984,0,1.559.52,1.559,1.388V-4.2l-2.037.116c-1.641.1-2.577.861-2.577,2.078A2.136,2.136,0,0,0,17.438.123ZM22.527,0h1.189V-4.43A1.506,1.506,0,0,1,25.241-6.1a2.394,2.394,0,0,1,.636.068V-7.185a3.065,3.065,0,0,0-.479-.048,1.741,1.741,0,0,0-1.723,1.285h-.027V-7.109H22.527Zm4.453,0H28.17V-4.184a1.814,1.814,0,0,1,1.853-2c1.094,0,1.634.629,1.634,1.777V0h1.189V-4.614a2.34,2.34,0,0,0-2.461-2.618,2.379,2.379,0,0,0-2.256,1.258H28.1V-7.109H26.981Zm7.578,0h1.189V-7.109H34.558Zm.595-8.374a.742.742,0,0,0,.745-.745.738.738,0,0,0-.745-.745.742.742,0,0,0-.745.745A.747.747,0,0,0,35.153-8.374ZM37.494,0h1.189V-4.184a1.814,1.814,0,0,1,1.853-2c1.094,0,1.634.629,1.634,1.777V0H43.36V-4.614A2.34,2.34,0,0,0,40.9-7.232a2.379,2.379,0,0,0-2.256,1.258h-.027V-7.109H37.494ZM47.9-.991c-1.224,0-2.023-1-2.023-2.591s.8-2.6,2.023-2.6,2.064,1.039,2.064,2.6S49.139-.991,47.9-.991Zm.041,3.671c1.962,0,3.213-1.128,3.213-2.823V-7.109H50.021v1.2H50A2.585,2.585,0,0,0,47.69-7.232c-1.839,0-3.028,1.422-3.028,3.65,0,2.208,1.189,3.637,3,3.637a2.572,2.572,0,0,0,2.276-1.278h.027V-.1a1.755,1.755,0,0,1-1.976,1.771A1.837,1.837,0,0,1,46.166.588H44.942A2.832,2.832,0,0,0,47.943,2.68Z" transform="translate(35 750)"/><g transform="translate(1 1)"><g transform="translate(41.998 770.999)"><path class="c" d="M26,0H14.734a.867.867,0,0,0-.867.867V6.934h-13A.867.867,0,0,0,0,7.8V51.136A.867.867,0,0,0,.867,52H26a.867.867,0,0,0,.867-.867V.867A.867.867,0,0,0,26,0Zm-.867,45.069H15.6V43.335h9.534ZM1.733,13H13.867V40.735H1.733Zm23.4-3.467H15.6v-2.6h9.534Zm-23.4,31.2H13.867v2.6H1.733Zm13.867,2.6V11.267h9.534V43.335Zm9.534-41.6v5.2H15.6v-5.2ZM13.867,8.667v2.6H1.733v-2.6ZM1.733,45.069H13.867v5.2H1.733Zm13.867,5.2V46.8h9.534v3.467Z"/><path class="c" d="M273.1,104.518,262.7,64.65a.866.866,0,0,0-1.062-.619l-13,3.467a.866.866,0,0,0-.615,1.056l10.4,39.868a.865.865,0,0,0,1.062.617l13-3.467A.867.867,0,0,0,273.1,104.518ZM251.3,74.244l11.326-3.019.845,3.242-11.322,3.019Zm12.171.222L268.5,93.748l-11.322,3.021-5.027-19.283ZM268.5,93.748l1.329,5.079L258.5,101.847l-1.325-5.078ZM261.246,65.93l.944,3.618-11.326,3.019-.943-3.617Zm-1.363,41.212-.944-3.618,11.326-3.02.943,3.617Z" transform="translate(-221.13 -57.068)"/><path class="c" d="M39.8,144H32.867a.867.867,0,0,0-.867.867V151.8a.867.867,0,0,0,.867.867H39.8a.867.867,0,0,0,.867-.867v-6.934A.867.867,0,0,0,39.8,144Zm-.867,6.934h-5.2v-5.2h5.2Z" transform="translate(-28.533 -128.399)"/></g><g transform="translate(60.5 760.204)"><g transform="translate(0 36.648)"><g transform="translate(0 0)"><path class="d" d="M-334.8-1889.175v-14.512c0-2.969,2.138-1.659,2.138-1.659l23.694,14.532a10.128,10.128,0,0,0,5.233,1.38,10.123,10.123,0,0,0,5.233-1.38l24.312-14.91s1.52-1.165,1.52,1.219v15.33c0,7.644-13.909,15.885-31.065,15.885S-334.8-1881.531-334.8-1889.175Zm63.018,9.266a4.218,4.218,0,0,1,2.087-3.641.65.65,0,0,0,.4-.541v-22.2a2.055,2.055,0,0,1,.426-1.55,19.979,19.979,0,0,1,2.379-1.474c.687-.383.671.776.671.776v24.449a.628.628,0,0,0,.385.533,4.216,4.216,0,0,1,2.1,3.649,4.224,4.224,0,0,1-4.225,4.224A4.224,4.224,0,0,1-271.777-1879.909Zm-35.262-14.857-36.1-22.137c-1.821-1.117-1.821-2.944,0-4.061l36.1-18.049a6.959,6.959,0,0,1,6.62,0l36.1,18.049c1.821,1.117,1.821,2.944,0,4.061l-36.1,22.137a6.455,6.455,0,0,1-3.31.838A6.455,6.455,0,0,1-307.04-1894.766Z" transform="translate(344.5 1939.852)"/></g></g></g><path class="e" d="M66.294,316.313a38.577,38.577,0,0,1-7.881.794,39.225,39.225,0,0,1-20.053-5.521" transform="matrix(-0.602, -0.799, 0.799, -0.602, -76.969, 1029.356)"/><path class="e" d="M94.683,292.7q-.575,1.416-1.256,2.774A39.629,39.629,0,0,1,81.575,309.52" transform="matrix(-0.643, -0.766, 0.766, -0.643, -67.847, 1038.268)"/><g class="f" transform="translate(124.082 783.395) rotate(-90)"><circle class="h" cx="3.5" cy="3.5" r="3.5"/><circle class="i" cx="3.5" cy="3.5" r="2.75"/></g><line class="g" x2="20" y2="10" transform="translate(107.5 803.5)"/><line class="g" x2="2" y2="1" transform="translate(102.5 804.5)"/><line class="g" x2="10" y2="5" transform="translate(106.5 806.5)"/></g></g></svg>