<svg xmlns="http://www.w3.org/2000/svg" xmlns:xlink="http://www.w3.org/1999/xlink" width="174" height="184.071" viewBox="0 0 174 184.071"><defs><style>.a{fill:#fff;}.b{fill:#1f1c1c;}.c{fill:url(#c);}.d,.e,.f,.g,.i{fill:none;}.d,.f{stroke:#bbbbc7;}.d,.e,.g{stroke-linecap:round;}.d,.e{stroke-linejoin:round;}.d,.e,.f{stroke-width:1.5px;}.e{stroke:#262857;}.g{stroke:#fff;}.h{stroke:none;}.j{filter:url(#a);}</style><filter id="a" x="0" y="0" width="174" height="184.071" filterUnits="userSpaceOnUse"><feOffset dy="3" input="SourceAlpha"/><feGaussianBlur stdDeviation="3" result="b"/><feFlood flood-color="#6493a8" flood-opacity="0.161"/><feComposite operator="in" in2="b"/><feComposite in="SourceGraphic"/></filter><linearGradient id="c" x1="0.719" y1="0.022" x2="0.089" y2="1" gradientUnits="objectBoundingBox"><stop offset="0" stop-color="#4258e3"/><stop offset="1" stop-color="#87f4fd"/></linearGradient></defs><g transform="translate(-11 -527)"><g class="j" transform="matrix(1, 0, 0, 1, 11, 527)"><rect class="a" width="156" height="166.071" rx="10" transform="translate(9 6)"/></g><path class="b" d="M2.188-8.771h2.3A1.808,1.808,0,0,1,6.528-6.884,1.76,1.76,0,0,1,4.546-4.99H2.188Zm0,4.867H4.546L6.658,0H8.1L5.817-4.095A2.817,2.817,0,0,0,7.8-6.925,2.864,2.864,0,0,0,4.655-9.864H.957V0h1.23Zm9.963-2.3a1.9,1.9,0,0,1,1.894,2.037H10.182A2,2,0,0,1,12.151-6.2Zm1.866,4.163A1.716,1.716,0,0,1,12.253-.909a2.032,2.032,0,0,1-2.078-2.256v-.068h5.1v-.451c0-2.153-1.183-3.548-3.1-3.548-1.962,0-3.22,1.5-3.22,3.705,0,2.235,1.237,3.65,3.274,3.65a2.816,2.816,0,0,0,2.96-2.16Zm2.471-3.11c0,1.025.649,1.647,1.989,1.969l1.128.273c.813.2,1.094.492,1.094,1,0,.643-.595,1.053-1.559,1.053s-1.511-.39-1.654-1.2H16.3C16.433-.718,17.472.123,19.14.123c1.586,0,2.755-.875,2.755-2.112,0-1.019-.52-1.579-1.955-1.928L18.812-4.19c-.793-.191-1.155-.526-1.155-1.019,0-.622.574-1.053,1.442-1.053a1.357,1.357,0,0,1,1.511,1.2h1.135A2.377,2.377,0,0,0,19.1-7.232C17.561-7.232,16.488-6.364,16.488-5.147Zm7.161-3.678v1.716h-1.06v.978h1.06v4.286c0,1.367.506,1.9,1.812,1.9A4.238,4.238,0,0,0,26.212,0V-1a4.628,4.628,0,0,1-.492.034c-.608,0-.882-.294-.882-.943V-6.132h1.381v-.978H24.838V-8.825Z" transform="translate(35 561)"/><g transform="translate(72.898 595.528)"><path class="c" d="M110.173,66.907c-.711-.11-1.248-.186-1.685-.248a15.512,15.512,0,0,1-3.272-.73c-.618-.193-3.038-2.633-3.038-7.408a48.98,48.98,0,0,1,2.088-13.635c.017-.053.058-.208.114-.418.1-.385.865-2.71.865-2.71a32.4,32.4,0,0,0,1.118-3.662l.015-.064a86.414,86.414,0,0,0,1.892-17.668,3.574,3.574,0,0,0-1.232-2.218c-.084-.089-.159-.166-.215-.231-.444-.516-1.028-1.153-1.7-1.89-.446-.486-.937-1.022-1.465-1.608-.846-.936-1.79-1.792-2.7-2.62A29.436,29.436,0,0,1,97.715,8.54a11.508,11.508,0,0,1-2.5-7.372A1.176,1.176,0,0,0,94.964.25a1.986,1.986,0,0,0-1.717,0A1.175,1.175,0,0,0,93,1.168,11.513,11.513,0,0,1,90.5,8.54,29.476,29.476,0,0,1,87.26,11.8c-.912.828-1.857,1.684-2.7,2.62-.529.586-1.02,1.121-1.466,1.608-.677.737-1.261,1.374-1.7,1.89-.056.065-.13.143-.215.231a3.573,3.573,0,0,0-1.233,2.223,86.408,86.408,0,0,0,1.892,17.664l.015.064a32.48,32.48,0,0,0,1.118,3.662s.761,2.325.865,2.71c.057.21.1.365.115.418A48.993,48.993,0,0,1,86.032,58.52c0,4.776-2.419,7.216-3.037,7.408a15.512,15.512,0,0,1-3.272.73c-.437.062-.973.138-1.684.248-7.707.82-8.539,4.646-8.539,6.253a5.71,5.71,0,0,0,1.24,3.121c.914,1.159,2.735,2.542,6.22,2.542a15.406,15.406,0,0,0,1.644-.092c2.319-.249,4.657-.624,6.917-.986.821-.131,1.641-.263,2.462-.389a51.663,51.663,0,0,1,5.858-.33l.266-.006.265.006a51.669,51.669,0,0,1,5.859.33c.821.126,1.64.257,2.461.389,2.26.362,4.6.736,6.917.986a15.46,15.46,0,0,0,1.644.092c3.485,0,5.307-1.382,6.22-2.542a5.708,5.708,0,0,0,1.24-3.121C118.711,71.553,117.88,67.727,110.173,66.907ZM98.181,35.584a.763.763,0,0,1-.334-.077,2.048,2.048,0,0,1-.861-1.094A7.651,7.651,0,0,0,99.978,28.1c0-4-.422-8.665-5.873-8.665S88.232,24.1,88.232,28.1a7.651,7.651,0,0,0,2.992,6.311,2.228,2.228,0,0,1-.861,1.094.761.761,0,0,1-.334.077c-1.148,0-2.586-2.513-2.964-3.513a28.416,28.416,0,0,1-1.619-8.883l-.007-.164c-.044-.9,1.308-3.194,1.488-3.587.246-.541,3.441-5.411,4.39-6.565.336-.408,2.038-2.668,2.788-3.665.75,1,2.452,3.257,2.787,3.665.95,1.154,4.144,6.024,4.39,6.565.179.393,1.532,2.689,1.488,3.587l-.007.164a28.4,28.4,0,0,1-1.62,8.883C100.767,33.071,99.329,35.584,98.181,35.584Z" transform="translate(-69.499 0.001)"/></g><path class="d" d="M362.682,1809.87s-20.24-15.979-18.364-63.622c9.191,13.115,12.167,16.5,12.167,16.5" transform="translate(-289.784 -1146.883)"/><path class="e" d="M375.587,1803.7s-21-18.126-14.87-68.773c9.373,9.979,11.886,12.618,11.886,12.618" transform="translate(-289.86 -1146.827)"/><path class="e" d="M375.667,1750.358s-.971-11.435,11.967-32.246c3.934,8.138,11.8,23.383,11.828,32.246" transform="translate(-289.94 -1142.257)"/><path class="e" d="M401.874,1747.865l12.47-12.985s6.52,42.687-15.129,69.049" transform="translate(-290.057 -1146.827)"/><path class="d" d="M422.628,1795.341a53.469,53.469,0,0,1-9.581,14.688" transform="translate(-290.125 -1146.882)"/><path class="d" d="M427.407,1787.94s4.512-18.781,3.843-35.824c-3.733,4-13.318,17.1-13.318,17.1" transform="translate(-290 -1153)"/><g class="f" transform="translate(132 639)"><circle class="h" cx="3" cy="3" r="3"/><circle class="i" cx="3" cy="3" r="2.25"/></g><path class="g" d="M408.042,1818.487s3.193,1.742,2.148,4.514" transform="translate(-290 -1153)"/><path class="g" d="M395.428,1763.437l1,1.081" transform="translate(-290 -1153)"/><path class="g" d="M394.88,1762.928l2.039,2.255" transform="translate(-287 -1150)"/></g></svg>