<svg xmlns="http://www.w3.org/2000/svg" xmlns:xlink="http://www.w3.org/1999/xlink" width="174" height="184.071" viewBox="0 0 174 184.071">
  <defs>
    <filter id="Rectangle_114" x="0" y="0" width="174" height="184.071" filterUnits="userSpaceOnUse">
      <feOffset dy="3" input="SourceAlpha"/>
      <feGaussianBlur stdDeviation="3" result="blur"/>
      <feFlood flood-color="#6493a8" flood-opacity="0.161"/>
      <feComposite operator="in" in2="blur"/>
      <feComposite in="SourceGraphic"/>
    </filter>
    <linearGradient id="linear-gradient" x1="0.045" y1="0.962" x2="0.927" gradientUnits="objectBoundingBox">
      <stop offset="0" stop-color="#87f4fd"/>
      <stop offset="1" stop-color="#4258e3"/>
    </linearGradient>
  </defs>
  <g id="shopping" transform="translate(-11 -338)">
    <g transform="matrix(1, 0, 0, 1, 11, 338)" filter="url(#Rectangle_114)">
      <rect id="Rectangle_114-2" data-name="Rectangle 114" width="156" height="166.071" rx="10" transform="translate(9 6)" fill="#fff"/>
    </g>
    <path id="Sent" d="M.479-2.646C.595-.943,2.03.164,4.184.164,6.392.164,7.827-.978,7.827-2.8c0-1.395-.813-2.215-2.871-2.666L3.862-5.708C2.516-6,1.989-6.535,1.989-7.314c0-1,.95-1.606,2.181-1.606A2,2,0,0,1,6.419-7.178h1.23C7.595-8.853,6.173-10.028,4.2-10.028,2.16-10.028.725-8.887.725-7.26c0,1.4.854,2.3,2.83,2.728l1.094.239c1.367.3,1.914.848,1.914,1.675,0,.971-.971,1.675-2.311,1.675-1.415,0-2.4-.643-2.543-1.7ZM9.28,0h1.189V-4.143A1.847,1.847,0,0,1,12.383-6.18a1.577,1.577,0,0,1,1.682,1.8V0h1.189V-4.594a2.4,2.4,0,0,0-2.5-2.639A2.354,2.354,0,0,0,10.5-5.975h-.027v-3.89H9.28ZM19.851.123c1.962,0,3.288-1.415,3.288-3.678s-1.326-3.678-3.288-3.678-3.295,1.408-3.295,3.678S17.883.123,19.851.123Zm0-1.046c-1.258,0-2.085-.957-2.085-2.632s.827-2.632,2.085-2.632,2.078.957,2.078,2.632S21.109-.923,19.851-.923Zm8.077-6.31a2.552,2.552,0,0,0-2.3,1.326H25.6v-1.2H24.476V2.372h1.189V-1.155h.027A2.5,2.5,0,0,0,27.955.123c1.791,0,3.015-1.449,3.015-3.678S29.739-7.232,27.928-7.232ZM27.7-.923c-1.217,0-2.037-1.046-2.037-2.632s.82-2.632,2.037-2.632c1.265,0,2.058,1.025,2.058,2.632S28.96-.923,27.7-.923Zm8.063-6.31a2.552,2.552,0,0,0-2.3,1.326h-.027v-1.2H32.306V2.372H33.5V-1.155h.027A2.5,2.5,0,0,0,35.786.123c1.791,0,3.015-1.449,3.015-3.678S37.57-7.232,35.758-7.232Zm-.232,6.31c-1.217,0-2.037-1.046-2.037-2.632s.82-2.632,2.037-2.632c1.265,0,2.058,1.025,2.058,2.632S36.79-.923,35.526-.923ZM40.2,0h1.189V-7.109H40.2Zm.595-8.374a.742.742,0,0,0,.745-.745.738.738,0,0,0-.745-.745.742.742,0,0,0-.745.745A.747.747,0,0,0,40.793-8.374ZM43.134,0h1.189V-4.184a1.814,1.814,0,0,1,1.853-2c1.094,0,1.634.629,1.634,1.777V0H49V-4.614a2.34,2.34,0,0,0-2.461-2.618,2.379,2.379,0,0,0-2.256,1.258h-.027V-7.109H43.134ZM53.542-.991c-1.224,0-2.023-1-2.023-2.591s.8-2.6,2.023-2.6,2.064,1.039,2.064,2.6S54.779-.991,53.542-.991Zm.041,3.671c1.962,0,3.213-1.128,3.213-2.823V-7.109H55.661v1.2H55.64A2.585,2.585,0,0,0,53.33-7.232c-1.839,0-3.028,1.422-3.028,3.65,0,2.208,1.189,3.637,3,3.637a2.572,2.572,0,0,0,2.276-1.278h.027V-.1A1.755,1.755,0,0,1,53.63,1.668,1.837,1.837,0,0,1,51.805.588H50.582A2.832,2.832,0,0,0,53.583,2.68Z" transform="translate(35 372)" fill="#1f1c1c"/>
    <g id="Group_1305" data-name="Group 1305" transform="translate(100.641 398.491)">
      <g id="Group_1298" data-name="Group 1298" transform="translate(10.359 -0.002)">
        <g id="Group_1297" data-name="Group 1297" transform="translate(0)">
          <path id="Path_838" data-name="Path 838" d="M49.654,22.069c-.173-.354-.173-.76,1.6-4.4a3.735,3.735,0,0,0-1.612-4.96L46.42,11a1.261,1.261,0,0,1-.655-.9l-.631-3.6a3.735,3.735,0,0,0-4.219-3.066L37.3,3.944a1.261,1.261,0,0,1-1.06-.344L33.61,1.059a3.735,3.735,0,0,0-5.215,0L25.768,3.6a1.261,1.261,0,0,1-1.06.344L21.09,3.433A3.735,3.735,0,0,0,16.871,6.5l-.631,3.6a1.261,1.261,0,0,1-.655.9l-3.228,1.713a3.735,3.735,0,0,0-1.612,4.96l1.6,3.283a1.261,1.261,0,0,1,0,1.115l-1.6,3.283a3.735,3.735,0,0,0,1.612,4.96l3.228,1.713a1.261,1.261,0,0,1,.655.9l.631,3.6a3.733,3.733,0,0,0,3.682,3.1,3.837,3.837,0,0,0,.537-.038l3.618-.512a1.261,1.261,0,0,1,1.06.344l2.626,2.541a3.735,3.735,0,0,0,5.215,0l2.626-2.541a1.262,1.262,0,0,1,1.06-.344l3.618.512a3.735,3.735,0,0,0,4.219-3.066l.631-3.6a1.261,1.261,0,0,1,.655-.9l3.228-1.713a3.735,3.735,0,0,0,1.612-4.96Z" transform="translate(-10.359 0.002)" fill="none" stroke="#262857" stroke-width="1.5"/>
        </g>
      </g>
      <g id="Group_1302" data-name="Group 1302" transform="translate(23.482 10.744)">
        <g id="Group_1301" data-name="Group 1301" transform="translate(0)">
          <path id="Path_840" data-name="Path 840" d="M145.866,123.116a3.064,3.064,0,1,0,3.064,3.064A3.068,3.068,0,0,0,145.866,123.116Z" transform="translate(-142.802 -123.116)" fill="none" stroke="#262857" stroke-width="1.5"/>
        </g>
      </g>
      <g id="Group_1306" data-name="Group 1306" transform="translate(33.839 25.881)">
        <g id="Group_1301-2" data-name="Group 1301" transform="translate(0)">
          <path id="Path_840-2" data-name="Path 840" d="M145.866,123.116a3.064,3.064,0,1,0,3.064,3.064A3.068,3.068,0,0,0,145.866,123.116Z" transform="translate(-142.802 -123.116)" fill="none" stroke="#262857" stroke-width="1.5"/>
        </g>
      </g>
      <line id="Line_28" data-name="Line 28" y1="15.138" x2="16.731" transform="translate(22.921 13.941)" fill="none" stroke="#262857" stroke-linecap="round" stroke-width="1.5"/>
    </g>
    <g id="Group_1307" data-name="Group 1307" transform="translate(14 10)">
      <g id="Group_1296" data-name="Group 1296" transform="translate(54.955 415.902)">
        <g id="shopping-cart">
          <path id="Path_837" data-name="Path 837" d="M18.651,48.186a6.02,6.02,0,1,0,5.4,5.4A6.034,6.034,0,0,0,18.651,48.186ZM0,2.376V3.654A2.365,2.365,0,0,0,2.365,6.02H6.02L16.855,28.895l-4.214,7.224a10.694,10.694,0,0,0-.6,3.01,6.037,6.037,0,0,0,6.02,6.02H51.815a2.362,2.362,0,0,0,2.362-2.362V41.492a2.364,2.364,0,0,0-2.364-2.364H19.263a.6.6,0,0,1-.6-.6v-.3l2.709-5.117H43.643A5.489,5.489,0,0,0,48.76,30.1c11.6-20.324,11.4-20.6,11.448-21.617A2.306,2.306,0,0,0,57.89,6.02H12.641L10.56,1.4A2.366,2.366,0,0,0,8.4,0H2.376A2.376,2.376,0,0,0,0,2.376Zm48.749,45.81a6.02,6.02,0,1,0,5.4,5.4A6.034,6.034,0,0,0,48.749,48.186Z" fill="url(#linear-gradient)"/>
        </g>
      </g>
      <path id="Path_841" data-name="Path 841" d="M393.426,1960.222l-5.85,10.26" transform="translate(-283 -1533)" fill="none" stroke="#fff" stroke-linecap="round" stroke-width="1"/>
      <path id="Path_843" data-name="Path 843" d="M393.5,1960l-2.372,4.365" transform="translate(-286 -1533)" fill="none" stroke="#fff" stroke-linecap="round" stroke-width="1"/>
      <path id="Path_844" data-name="Path 844" d="M393.5,1960l-2.372,4.365" transform="matrix(0.485, 0.875, -0.875, 0.485, 1593.281, -873.232)" fill="none" stroke="#fff" stroke-linecap="round" stroke-width="1.5"/>
      <path id="Path_845" data-name="Path 845" d="M393.5,1960l-2.372,4.365" transform="matrix(0.485, 0.875, -0.875, 0.485, 1599.281, -840.118)" fill="none" stroke="#fff" stroke-linecap="round" stroke-width="1.5"/>
      <path id="Path_842" data-name="Path 842" d="M393.426,1960.222l-.865,1.58" transform="translate(-290.206 -1520)" fill="none" stroke="#fff" stroke-linecap="round" stroke-width="1"/>
    </g>
    <path id="Path_850" data-name="Path 850" d="M679.025,55.574A45.064,45.064,0,0,1,718.052-12a45.306,45.306,0,0,1,8.218.748" transform="translate(-616.573 551.398) rotate(-11)" fill="none" stroke="#bbbbc7" stroke-linecap="round" stroke-miterlimit="10" stroke-width="1.5"/>
  </g>
</svg>
