<svg xmlns="http://www.w3.org/2000/svg" xmlns:xlink="http://www.w3.org/1999/xlink" width="174" height="184.071" viewBox="0 0 174 184.071"><defs><style>.a{fill:#fff;}.b{fill:#1f1c1c;}.c,.d,.f,.g,.h,.j{fill:none;}.c,.d{stroke:#262857;}.c{stroke-miterlimit:10;}.c,.d,.f,.g{stroke-width:1.5px;}.d,.f,.h{stroke-linecap:round;}.d,.f{stroke-linejoin:round;}.e{fill:url(#c);}.f,.g{stroke:#bbbbc7;}.h{stroke:#fff;}.i{stroke:none;}.k{filter:url(#a);}</style><filter id="a" x="0" y="0" width="174" height="184.071" filterUnits="userSpaceOnUse"><feOffset dy="3" input="SourceAlpha"/><feGaussianBlur stdDeviation="3" result="b"/><feFlood flood-color="#6493a8" flood-opacity="0.161"/><feComposite operator="in" in2="b"/><feComposite in="SourceGraphic"/></filter><linearGradient id="c" x1="0.816" y1="0.102" x2="0.223" y2="0.951" gradientUnits="objectBoundingBox"><stop offset="0" stop-color="#4258e3"/><stop offset="1" stop-color="#87f4fd"/></linearGradient></defs><g transform="translate(-190 -149)"><g class="k" transform="matrix(1, 0, 0, 1, 190, 149)"><rect class="a" width="156" height="166.071" rx="10" transform="translate(9 6)"/></g><path class="b" d="M.479-2.646C.595-.943,2.03.164,4.184.164,6.392.164,7.827-.978,7.827-2.8c0-1.395-.813-2.215-2.871-2.666L3.862-5.708C2.516-6,1.989-6.535,1.989-7.314c0-1,.95-1.606,2.181-1.606A2,2,0,0,1,6.419-7.178h1.23C7.595-8.853,6.173-10.028,4.2-10.028,2.16-10.028.725-8.887.725-7.26c0,1.4.854,2.3,2.83,2.728l1.094.239c1.367.3,1.914.848,1.914,1.675,0,.971-.971,1.675-2.311,1.675-1.415,0-2.4-.643-2.543-1.7ZM12.67-7.232a2.552,2.552,0,0,0-2.3,1.326h-.027v-1.2H9.218V2.372h1.189V-1.155h.027A2.5,2.5,0,0,0,12.7.123c1.791,0,3.015-1.449,3.015-3.678S14.482-7.232,12.67-7.232Zm-.232,6.31c-1.217,0-2.037-1.046-2.037-2.632s.82-2.632,2.037-2.632c1.265,0,2.058,1.025,2.058,2.632S13.7-.923,12.438-.923ZM19.995.123c1.962,0,3.288-1.415,3.288-3.678s-1.326-3.678-3.288-3.678S16.7-5.824,16.7-3.555,18.026.123,19.995.123Zm0-1.046c-1.258,0-2.085-.957-2.085-2.632s.827-2.632,2.085-2.632,2.078.957,2.078,2.632S21.253-.923,19.995-.923ZM24.619,0h1.189V-4.43A1.506,1.506,0,0,1,27.333-6.1a2.394,2.394,0,0,1,.636.068V-7.185a3.065,3.065,0,0,0-.479-.048,1.741,1.741,0,0,0-1.723,1.285H25.74V-7.109H24.619Zm4.836-8.825v1.716H28.4v.978h1.06v4.286c0,1.367.506,1.9,1.812,1.9A4.238,4.238,0,0,0,32.019,0V-1a4.628,4.628,0,0,1-.492.034c-.608,0-.882-.294-.882-.943V-6.132h1.381v-.978H30.645V-8.825Zm3.852,3.678c0,1.025.649,1.647,1.989,1.969l1.128.273c.813.2,1.094.492,1.094,1,0,.643-.595,1.053-1.559,1.053s-1.511-.39-1.654-1.2H33.116C33.253-.718,34.292.123,35.96.123c1.586,0,2.755-.875,2.755-2.112,0-1.019-.52-1.579-1.955-1.928L35.632-4.19c-.793-.191-1.155-.526-1.155-1.019,0-.622.574-1.053,1.442-1.053a1.357,1.357,0,0,1,1.511,1.2h1.135a2.377,2.377,0,0,0-2.646-2.174C34.381-7.232,33.307-6.364,33.307-5.147Z" transform="translate(214 183)"/><g transform="translate(253.269 62.105) rotate(6)"><rect class="c" width="9.165" height="31.756" rx="1" transform="translate(18.903 140.826)"/><rect class="c" width="9.165" height="31.756" rx="1" transform="translate(52.308 140.826)"/><path class="c" d="M58.3,167.15H52.593a1.032,1.032,0,0,0-1.033,1.033V190.54a1.032,1.032,0,0,0,1.033,1.031H58.3" transform="translate(-39.398 -22.709)"/><path class="c" d="M410.63,191.952h5.794a1.033,1.033,0,0,0,1.033-1.033V168.563a1.033,1.033,0,0,0-1.033-1.033H410.63" transform="translate(-349.158 -23.036)"/><path class="c" d="M12.162,234.784H6.921a1.032,1.032,0,0,1-1.031-1.033v-6.11a1.031,1.031,0,0,1,1.031-1.031h5.24" transform="translate(0 -74.003)"/><path class="c" d="M460.34,234.414h5.348a1.032,1.032,0,0,0,1.033-1.031v-6.11a1.032,1.032,0,0,0-1.033-1.033H460.34" transform="translate(-392.041 -73.684)"/><line class="d" x2="23.422" transform="translate(28.068 152.556)"/><line class="d" x2="8.536" transform="translate(43.772 152.556)"/><line class="d" x2="24.24" y2="0.05" transform="translate(28.068 160.73)"/></g><g transform="translate(-14.418 4.582)"><circle class="a" cx="30.709" cy="30.709" r="30.709" transform="translate(238 226)"/><path class="e" d="M30.708,0A30.708,30.708,0,1,0,61.415,30.708,30.708,30.708,0,0,0,30.708,0Zm1.1,8.853L42.479,4.586a28.729,28.729,0,0,1,3.508,1.891l.028.018a28.818,28.818,0,0,1,3.16,2.317l.086.075q.673.573,1.308,1.185c.053.052.109.1.163.156q.667.651,1.291,1.341c.034.039.067.08.1.119.365.409.717.833,1.057,1.264.082.1.164.2.243.307.37.479.728.966,1.066,1.469l-2.128,9.046-10.47,3.491-10.086-8.07ZM7.989,13.265q.119-.154.242-.307.505-.641,1.045-1.251c.039-.043.075-.087.113-.13q.621-.692,1.286-1.341c.051-.05.1-.1.155-.148q.63-.608,1.3-1.178l.1-.086a28.926,28.926,0,0,1,3.13-2.3l.04-.025a28.76,28.76,0,0,1,3.487-1.889L29.612,8.853V19.191L19.525,27.26,9.055,23.776,6.927,14.73C7.268,14.228,7.621,13.741,7.989,13.265ZM6.756,46.415q-.451-.688-.863-1.4L5.826,44.9q-.409-.711-.775-1.445l-.008-.015A28.523,28.523,0,0,1,3.7,40.264v-.01c-.182-.512-.348-1.036-.5-1.563L3.138,38.5q-.211-.743-.382-1.5c-.01-.05-.023-.1-.032-.145a28.469,28.469,0,0,1-.541-3.467l6.249-7.5,10.4,3.466,3.018,12.07-4.959,6.6ZM37.524,58.542c-.512.127-1.037.236-1.562.335-.073.014-.148.026-.222.04-.447.08-.9.148-1.353.2l-.361.047c-.421.049-.846.086-1.272.116-.134.009-.266.023-.4.031-.544.034-1.093.053-1.646.053q-.759,0-1.51-.04c-.06,0-.118-.01-.179-.015q-.668-.038-1.331-.1l-.051-.009a29.134,29.134,0,0,1-2.886-.46L18.7,49.262l4.881-6.508H37.839L42.8,49.305ZM58.7,36.849c-.011.049-.023.1-.033.145q-.172.759-.382,1.5l-.055.194c-.154.527-.319,1.05-.5,1.563v.01a28.442,28.442,0,0,1-1.348,3.173l-.009.015Q56,44.188,55.6,44.9l-.067.115q-.409.717-.862,1.4l-10.1,1.592-4.993-6.592,3.016-12.067,10.4-3.466,6.249,7.5A28.429,28.429,0,0,1,58.7,36.849Z" transform="translate(238.001 226.001)"/></g><path class="f" d="M66.294,316.313a38.577,38.577,0,0,1-7.881.794,39.225,39.225,0,0,1-20.053-5.521" transform="matrix(0.799, -0.602, 0.602, 0.799, 68.039, 66.949)"/><path class="f" d="M94.683,292.7q-.575,1.416-1.256,2.774A39.629,39.629,0,0,1,81.575,309.52" transform="matrix(0.766, -0.643, 0.643, 0.766, 58.574, 77.373)"/><g class="g" transform="translate(314 268)"><circle class="i" cx="3.5" cy="3.5" r="3.5"/><circle class="j" cx="3.5" cy="3.5" r="2.75"/></g><path class="h" d="M564.721,1783a20.9,20.9,0,0,1,2.544,6.965" transform="translate(-285 -1534)"/><path class="h" d="M567.631,1791.287l.183,1.275" transform="translate(-285 -1533)"/><path class="h" d="M540.021,1786.987l7.077,5.606" transform="translate(-285 -1534)"/></g></svg>