<svg xmlns="http://www.w3.org/2000/svg" xmlns:xlink="http://www.w3.org/1999/xlink" width="1920" height="1160" viewBox="0 0 1920 1160"><defs><style>.a{fill:#fff;stroke:#707070;}.b{clip-path:url(#a);}.c{opacity:0.083;}.c,.d{fill:url(#b);}.d{opacity:0.062;}</style><clipPath id="a"><rect class="a" width="1920" height="1160"/></clipPath><linearGradient id="b" y1="0.086" x2="2.134" y2="1.435" gradientUnits="objectBoundingBox"><stop offset="0" stop-color="#87f4fd"/><stop offset="1" stop-color="#4258e3"/></linearGradient></defs><g class="b"><path class="c" d="M-16650.766,8082.037c359.374,34.222,491.277,151.5,805.1,187.8s432.254-112.343,809.414-119.838,639.755,77.227,639.755,77.227,431.188,49.836,378.447,418.453-230.106,416.945-814.759,405.393-562.692-73.9-948.73-49.7-472.7,138.845-839.236,138.845-1217.5-165.132-1192.4-624.6S-17010.141,8047.814-16650.766,8082.037Z" transform="translate(16949 -7991)"/><path class="d" d="M-16620.771,8100.958c297.2,49.741,393.234,229.127,967.908,206.869s689.232-331.047,1184.746-25.18c278.973,172.2,385.171,439.289,0,713.687s-987.172,10.18-1321.395,9.332-464.725,94.968-831.26,94.968-1156.58-124.489-1122.857-589.749S-16917.969,8051.217-16620.771,8100.958Z" transform="translate(17135 -8060)"/></g></svg>