<svg xmlns="http://www.w3.org/2000/svg" xmlns:xlink="http://www.w3.org/1999/xlink" width="118" height="27" viewBox="0 0 118 27">
  <defs>
    <linearGradient id="linear-gradient" x1="0.915" y1="6.614" x2="-0.383" y2="5.945" gradientUnits="objectBoundingBox">
      <stop offset="0" stop-color="#00a0ff"/>
      <stop offset="0.007" stop-color="#00a1ff"/>
      <stop offset="0.26" stop-color="#00beff"/>
      <stop offset="0.512" stop-color="#00d2ff"/>
      <stop offset="0.76" stop-color="#00dfff"/>
      <stop offset="1" stop-color="#00e3ff"/>
    </linearGradient>
    <linearGradient id="linear-gradient-2" x1="1.076" y1="17.098" x2="-1.305" y2="17.098" gradientUnits="objectBoundingBox">
      <stop offset="0" stop-color="#ffe000"/>
      <stop offset="0.409" stop-color="#ffbd00"/>
      <stop offset="0.775" stop-color="orange"/>
      <stop offset="1" stop-color="#ff9c00"/>
    </linearGradient>
    <linearGradient id="linear-gradient-3" x1="0.862" y1="10.863" x2="-0.501" y2="9.093" gradientUnits="objectBoundingBox">
      <stop offset="0" stop-color="#ff3a44"/>
      <stop offset="1" stop-color="#c31162"/>
    </linearGradient>
    <linearGradient id="linear-gradient-4" x1="-0.188" y1="13.583" x2="0.421" y2="12.793" gradientUnits="objectBoundingBox">
      <stop offset="0" stop-color="#32a071"/>
      <stop offset="0.068" stop-color="#2da771"/>
      <stop offset="0.476" stop-color="#15cf74"/>
      <stop offset="0.801" stop-color="#06e775"/>
      <stop offset="1" stop-color="#00f076"/>
    </linearGradient>
  </defs>
  <g id="google" transform="translate(-478.813 -588.389)">
    <g id="Group_75" data-name="Group 75" transform="translate(510.416 588.388)">
      <path id="Path_28" data-name="Path 28" d="M57.514,20.2a2.636,2.636,0,0,1-.757,1.979,3,3,0,0,1-2.239.878,3.111,3.111,0,0,1-2.243-.89,3.1,3.1,0,0,1,0-4.413,3.111,3.111,0,0,1,2.243-.89,3.231,3.231,0,0,1,1.252.248,2.506,2.506,0,0,1,.953.663l-.535.521a2.088,2.088,0,0,0-1.669-.7,2.346,2.346,0,0,0-1.664.658,2.43,2.43,0,0,0,0,3.419,2.477,2.477,0,0,0,3.367,0,1.845,1.845,0,0,0,.511-1.2H54.518v-.712h2.954A2.46,2.46,0,0,1,57.514,20.2Z" transform="translate(-51.352 -16.866)" fill="#fff"/>
      <path id="Path_29" data-name="Path 29" d="M62.084,17.728H59.307v1.881h2.5v.712h-2.5V22.2h2.776v.728H58.525V17h3.559Z" transform="translate(-51.238 -16.868)" fill="#fff"/>
      <path id="Path_30" data-name="Path 30" d="M65.318,22.929h-.784v-5.2h-1.7V17H67.02v.728h-1.7Z" transform="translate(-51.17 -16.868)" fill="#fff"/>
      <path id="Path_31" data-name="Path 31" d="M69.938,22.929V17h.782v5.929Z" transform="translate(-51.057 -16.868)" fill="#fff"/>
      <path id="Path_32" data-name="Path 32" d="M74.167,22.929h-.783v-5.2h-1.7V17h4.188v.728h-1.7Z" transform="translate(-51.03 -16.868)" fill="#fff"/>
      <path id="Path_33" data-name="Path 33" d="M83.693,22.162a3.228,3.228,0,0,1-4.469,0,3.141,3.141,0,0,1,0-4.4,3.218,3.218,0,0,1,4.465,0,3.131,3.131,0,0,1,0,4.394Zm-3.891-.5a2.375,2.375,0,0,0,3.312-3.4,2.391,2.391,0,0,0-3.312,0,2.478,2.478,0,0,0,0,3.4Z" transform="translate(-50.924 -16.866)" fill="#fff"/>
      <path id="Path_34" data-name="Path 34" d="M85.575,22.929V17h.954l2.962,4.612h.034l-.034-1.142V17h.783v5.929h-.817l-3.1-4.836h-.034l.034,1.143v3.693Z" transform="translate(-50.809 -16.868)" fill="#fff"/>
    </g>
    <path id="Path_35" data-name="Path 35" d="M78.566,31.7A4.205,4.205,0,1,0,82.9,35.9,4.2,4.2,0,0,0,78.566,31.7Zm0,6.75A2.55,2.55,0,1,1,81,35.9,2.462,2.462,0,0,1,78.566,38.446ZM69.1,31.7a4.205,4.205,0,1,0,4.337,4.2A4.2,4.2,0,0,0,69.1,31.7Zm0,6.75A2.55,2.55,0,1,1,71.543,35.9,2.462,2.462,0,0,1,69.1,38.446ZM57.85,32.986v1.783h4.385a3.675,3.675,0,0,1-1,2.244,4.553,4.553,0,0,1-3.388,1.305A4.745,4.745,0,1,1,61.156,30.1l1.293-1.258a6.487,6.487,0,0,0-4.6-1.8,6.717,6.717,0,0,0-6.808,6.528A6.716,6.716,0,0,0,57.85,40.1a6.22,6.22,0,0,0,4.68-1.831A5.8,5.8,0,0,0,64.118,34.1a5.609,5.609,0,0,0-.1-1.114Zm46.026,1.385a4,4,0,0,0-3.7-2.674A4.045,4.045,0,0,0,96.1,35.9a4.17,4.17,0,0,0,4.288,4.2,4.323,4.323,0,0,0,3.6-1.863l-1.473-.956a2.483,2.483,0,0,1-2.127,1.162,2.205,2.205,0,0,1-2.1-1.273l5.777-2.325Zm-5.892,1.4a2.334,2.334,0,0,1,2.258-2.452,1.679,1.679,0,0,1,1.6.891Zm-4.7,4.075h1.9V27.493h-1.9Zm-3.111-7.212h-.065a3.033,3.033,0,0,0-2.275-.939,4.2,4.2,0,0,0,0,8.406,2.98,2.98,0,0,0,2.275-.956h.065v.606a2.177,2.177,0,0,1-2.307,2.468,2.386,2.386,0,0,1-2.177-1.5l-1.653.669a4.114,4.114,0,0,0,3.83,2.483c2.226,0,4.108-1.274,4.108-4.378V31.951h-1.8ZM88,38.446a2.551,2.551,0,0,1,0-5.094,2.56,2.56,0,0,1,0,5.094Zm24.767-10.953h-4.542V39.848h1.895v-4.68h2.647a3.85,3.85,0,1,0,0-7.674Zm.049,5.954h-2.7V29.213h2.7a2.12,2.12,0,1,1,0,4.235Zm11.715-1.774a3.579,3.579,0,0,0-3.383,1.89l1.683.684a2.07,2.07,0,0,1,3.725.684v.126a4.285,4.285,0,0,0-1.977-.476c-1.813,0-3.66.969-3.66,2.781a2.906,2.906,0,0,0,3.153,2.719,2.694,2.694,0,0,0,2.419-1.209h.065v.954h1.83V35.09C128.388,32.9,126.706,31.674,124.533,31.674Zm-.229,6.77c-.622,0-1.487-.3-1.487-1.049,0-.954,1.078-1.319,2.009-1.319a3.456,3.456,0,0,1,1.732.413A2.277,2.277,0,0,1,124.3,38.444Zm10.75-6.5L132.881,37.3h-.065l-2.255-5.356h-2.042L131.9,39.43l-1.928,4.164h1.977l5.212-11.65Zm-17.073,7.9h1.9V27.494h-1.9Z" transform="translate(459.651 571.513)" fill="#fff"/>
    <g id="Group_77" data-name="Group 77" transform="translate(478.813 588.77)">
      <path id="Path_36" data-name="Path 36" d="M20.442,17.537a1.95,1.95,0,0,0-.469,1.388V40.781a1.948,1.948,0,0,0,.469,1.388l.075.071L33.1,30v-.289L20.517,17.465Z" transform="translate(-19.973 -17.144)" fill="url(#linear-gradient)"/>
      <path id="Path_37" data-name="Path 37" d="M37.093,34.178l-4.2-4.083v-.289l4.2-4.082.094.053,4.971,2.747c1.419.785,1.419,2.068,0,2.853l-4.971,2.747Z" transform="translate(-19.768 -17.241)" fill="url(#linear-gradient-2)"/>
      <path id="Path_38" data-name="Path 38" d="M37.387,34.175,33.1,30,20.435,42.317a1.688,1.688,0,0,0,2.112.06l14.84-8.2" transform="translate(-19.966 -17.292)" fill="url(#linear-gradient-3)"/>
      <path id="Path_39" data-name="Path 39" d="M37.387,25.675l-14.84-8.2a1.688,1.688,0,0,0-2.112.06L33.1,29.85Z" transform="translate(-19.966 -17.14)" fill="url(#linear-gradient-4)"/>
      <g id="Group_76" data-name="Group 76" transform="translate(0 16.792)">
        <path id="Path_40" data-name="Path 40" d="M37.292,34.132l-14.745,8.15a1.729,1.729,0,0,1-2.036.011h0l-.076.073h0l.075.072h0a1.729,1.729,0,0,0,2.036-.011l14.84-8.2Z" transform="translate(-19.966 -34.132)" opacity="0.2"/>
        <path id="Path_41" data-name="Path 41" d="M20.442,42.3a1.948,1.948,0,0,1-.469-1.388v.145a1.945,1.945,0,0,0,.469,1.387l.076-.073Z" transform="translate(-19.973 -34.212)" opacity="0.12"/>
      </g>
      <path id="Path_42" data-name="Path 42" d="M42.094,31.284l-5.065,2.8.094.092,4.971-2.747A1.737,1.737,0,0,0,43.159,30h0A1.848,1.848,0,0,1,42.094,31.284Z" transform="translate(-19.703 -17.292)" opacity="0.12"/>
      <path id="Path_43" data-name="Path 43" d="M22.554,17.617l19.81,10.95a1.848,1.848,0,0,1,1.065,1.283h0a1.734,1.734,0,0,0-1.065-1.427l-19.81-10.95c-1.42-.785-2.581-.132-2.581,1.449v.145C19.973,17.485,21.134,16.833,22.554,17.617Z" transform="translate(-19.973 -17.14)" fill="#fff" opacity="0.25"/>
    </g>
  </g>
</svg>
