<svg xmlns="http://www.w3.org/2000/svg" xmlns:xlink="http://www.w3.org/1999/xlink" width="1920" height="447" viewBox="0 0 1920 447"><defs><style>.a,.c{fill:#fff;}.b{clip-path:url(#a);}.c{opacity:0.05;}</style><clipPath id="a"><rect class="a" width="1920" height="447" transform="translate(0 633)"/></clipPath></defs><g transform="translate(0 -633)"><g class="b"><path class="c" d="M-16650.766,8082.037c359.374,34.222,491.277,151.5,805.1,187.8s432.254-112.343,809.414-119.838,639.755,77.227,639.755,77.227,431.188,49.836,378.447,418.453c-52,363.453-249.616,421.12-808.591,386.919-7.706-.472-15.718-.976-23.8-1.5-571.934-36.94-444.174-85.965-929.766-50.832s-664.061,216.294-1030.592,216.294-1161.182-113.658-1136.076-573.129S-17010.141,8047.814-16650.766,8082.037Z" transform="translate(-15091.289 9892.094) rotate(180)"/></g></g></svg>