<svg xmlns="http://www.w3.org/2000/svg" xmlns:xlink="http://www.w3.org/1999/xlink" width="309.51" height="61.292" viewBox="0 0 309.51 61.292"><defs><style>.a{fill:#23244f;}.b{fill:#4258e3;}.c{fill:url(#a);}</style><linearGradient id="a" x1="1" y1="0.546" x2="-0.014" y2="0.581" gradientUnits="objectBoundingBox"><stop offset="0" stop-color="#3c4be1"/><stop offset="0.803" stop-color="#79d6f8"/><stop offset="1" stop-color="#80e5fb"/></linearGradient></defs><g transform="translate(-279 -432.292)"><path class="a" d="M3.7-37.962H29.583v6.384L11.856-6.384H29.925V0H3.021V-6.384L20.748-31.578H3.7ZM47.6-28.329a13.039,13.039,0,0,1,4.873.855,9.495,9.495,0,0,1,3.563,2.422A10.512,10.512,0,0,1,58.2-21.289a15.358,15.358,0,0,1,.741,4.931A19.058,19.058,0,0,1,58.8-14.05a13.286,13.286,0,0,1-.427,2.137H41.9a7.147,7.147,0,0,0,1.881,4.9q1.767,1.824,5.643,1.824a21.752,21.752,0,0,0,4.332-.428A15.9,15.9,0,0,0,57.513-6.84l.969,5.3A19.021,19.021,0,0,1,53.808.029,26.707,26.707,0,0,1,48.393.57,17.136,17.136,0,0,1,42.237-.456a12.57,12.57,0,0,1-4.531-2.907,12.458,12.458,0,0,1-2.822-4.532,16.9,16.9,0,0,1-.969-5.842,18.049,18.049,0,0,1,.94-5.957,12.959,12.959,0,0,1,2.708-4.617,12.11,12.11,0,0,1,4.3-2.964A14.8,14.8,0,0,1,47.6-28.329Zm-.456,5.244A4.347,4.347,0,0,0,43.463-21.4a8.016,8.016,0,0,0-1.511,4.247h9.519a6.375,6.375,0,0,0-.8-4.3A3.934,3.934,0,0,0,47.139-23.085ZM64.638,0V-27.759h7.524V-24a8.567,8.567,0,0,1,3.477-3.278,10.178,10.178,0,0,1,4.617-1.055,8.792,8.792,0,0,1,4.589,1.14,9.17,9.17,0,0,1,3.106,3.049,14.139,14.139,0,0,1,1.767,4.446,23.979,23.979,0,0,1,.57,5.273V0H82.479V-14.478a11.2,11.2,0,0,0-1.168-5.7,4.141,4.141,0,0,0-3.848-1.938,5.4,5.4,0,0,0-2.964.8,7.536,7.536,0,0,0-2.052,1.881V0ZM94.107-27.759h4.5v-7.182h7.809v7.182h8.322v6.1h-8.322V-9.747a5.767,5.767,0,0,0,.713,3.078,3.076,3.076,0,0,0,2.822,1.14,13.987,13.987,0,0,0,4.218-.627l.57,5.529a15.924,15.924,0,0,1-3.135.855,20.99,20.99,0,0,1-3.762.342A10.472,10.472,0,0,1,103.6-.2a7.526,7.526,0,0,1-2.85-2.138,8.754,8.754,0,0,1-1.624-3.192,14.7,14.7,0,0,1-.513-3.99V-21.66h-4.5ZM135.261-2.964a13.807,13.807,0,0,1-3.705,2.508A11.594,11.594,0,0,1,126.54.57a8.756,8.756,0,0,1-3.306-.6,7.217,7.217,0,0,1-2.508-1.653,7.517,7.517,0,0,1-1.6-2.479,8.368,8.368,0,0,1-.57-3.135,6.92,6.92,0,0,1,2.565-5.814,12.5,12.5,0,0,1,7.011-2.28q1.71-.114,3.534-.171t3.306-.114v-.969a5.743,5.743,0,0,0-1.311-4.076,5.389,5.389,0,0,0-4.1-1.4,15.979,15.979,0,0,0-4.1.513,15.646,15.646,0,0,0-3.42,1.311L120.5-25.764a18.413,18.413,0,0,1,4.788-1.91,23.215,23.215,0,0,1,5.643-.656q5.529,0,8.692,3.021t3.164,8.949V0h-7.524ZM129.39-4.731a8.211,8.211,0,0,0,3.078-.57,10.028,10.028,0,0,0,2.508-1.425v-4.389q-1.2.114-2.565.228T129.9-10.6a7.32,7.32,0,0,0-2.736.941,2.4,2.4,0,0,0-1.026,2.194,2.434,2.434,0,0,0,.883,2.052A3.764,3.764,0,0,0,129.39-4.731Zm39.9-3.933a8.4,8.4,0,0,1-.912,3.961A8.39,8.39,0,0,1,165.87-1.8a11.474,11.474,0,0,1-3.762,1.767,17.721,17.721,0,0,1-4.731.6,25.175,25.175,0,0,1-4.7-.484A21.851,21.851,0,0,1,148.257-1.2l1.14-5.529a23.328,23.328,0,0,0,3.762,1.168,18.2,18.2,0,0,0,3.933.427,7.948,7.948,0,0,0,3.221-.57A2.06,2.06,0,0,0,161.6-7.752a1.992,1.992,0,0,0-1.254-1.909q-1.254-.6-3.306-1.453-1.653-.684-3.192-1.4a11.732,11.732,0,0,1-2.708-1.71,7.97,7.97,0,0,1-1.881-2.337,7.042,7.042,0,0,1-.712-3.335,8.077,8.077,0,0,1,.826-3.762,7.232,7.232,0,0,1,2.28-2.622,10.44,10.44,0,0,1,3.42-1.539,16.781,16.781,0,0,1,4.247-.513,23.955,23.955,0,0,1,4.589.428,15.348,15.348,0,0,1,4.246,1.51l-1.2,5.529a23.175,23.175,0,0,0-3.449-1.226,13.837,13.837,0,0,0-3.62-.485,7.786,7.786,0,0,0-2.65.371,1.5,1.5,0,0,0-1,1.568,1.826,1.826,0,0,0,1.2,1.71q1.2.57,2.85,1.311,1.2.513,2.765,1.168a13.656,13.656,0,0,1,2.936,1.681,10.019,10.019,0,0,1,2.337,2.48A6.386,6.386,0,0,1,169.29-8.664ZM174.591,0V-40.242H182.4v25.536l9.234-13.053H200.3l-9.861,13.68L201.666,0h-9.291L182.4-13.509V0Z" transform="translate(386.843 485)"/><g transform="translate(279 432.292)"><path class="b" d="M0,0H27.192A15.106,15.106,0,0,1,42.3,15.106v0a0,0,0,0,1,0,0H0a0,0,0,0,1,0,0V0A0,0,0,0,1,0,0Z" transform="translate(29.909 61.154) rotate(-135)"/><path class="c" d="M0,0H61.574a10,10,0,0,1,10,10v5.107a0,0,0,0,1,0,0H0a0,0,0,0,1,0,0V0A0,0,0,0,1,0,0Z" transform="translate(19.336 50.611) rotate(-45)"/></g></g></svg>