<svg xmlns="http://www.w3.org/2000/svg" width="113.316" height="30.834" viewBox="0 0 113.316 30.834"><defs><style>.a{fill:#393A64;}</style></defs><g transform="translate(-298.432 -614.826)"><g transform="translate(298.432 614.826)"><path class="a" d="M29.246,22.215a6.446,6.446,0,0,1,3.07-5.408A6.6,6.6,0,0,0,27.117,14c-2.187-.23-4.308,1.309-5.422,1.309-1.136,0-2.852-1.286-4.7-1.248a6.924,6.924,0,0,0-5.826,3.553c-2.519,4.362-.64,10.772,1.773,14.3,1.207,1.726,2.618,3.655,4.465,3.586,1.807-.075,2.482-1.152,4.662-1.152,2.161,0,2.794,1.152,4.678,1.109,1.939-.031,3.16-1.734,4.325-3.477a14.279,14.279,0,0,0,1.978-4.028A6.229,6.229,0,0,1,29.246,22.215Z" transform="translate(-9.972 -7.131)"/><path class="a" d="M23.02,13.267A6.347,6.347,0,0,0,24.471,8.72a6.457,6.457,0,0,0-4.178,2.162A6.039,6.039,0,0,0,18.8,15.26,5.339,5.339,0,0,0,23.02,13.267Z" transform="translate(-7.303 -8.72)"/></g><g transform="translate(333.782 629.436)"><path class="a" d="M42.607,27.49H37.69L36.51,30.976H34.427l4.657-12.9h2.164l4.657,12.9H43.786ZM38.2,25.881h3.9l-1.921-5.658h-.054Z" transform="translate(-34.427 -17.863)"/><path class="a" d="M55.489,26.149c0,2.922-1.564,4.8-3.924,4.8A3.188,3.188,0,0,1,48.606,29.3h-.045v4.658h-1.93V21.446H48.5V23.01h.036a3.336,3.336,0,0,1,2.994-1.662C53.916,21.348,55.489,23.234,55.489,26.149Zm-1.984,0c0-1.9-.984-3.156-2.485-3.156-1.475,0-2.467,1.278-2.467,3.156,0,1.895.992,3.164,2.467,3.164C52.522,29.312,53.505,28.07,53.505,26.149Z" transform="translate(-33.955 -17.737)"/><path class="a" d="M65.454,26.149c0,2.922-1.564,4.8-3.924,4.8A3.188,3.188,0,0,1,58.571,29.3h-.045v4.658H56.6V21.446h1.868V23.01H58.5a3.336,3.336,0,0,1,2.994-1.662C63.881,21.348,65.454,23.234,65.454,26.149Zm-1.984,0c0-1.9-.984-3.156-2.485-3.156-1.475,0-2.467,1.278-2.467,3.156,0,1.895.992,3.164,2.467,3.164,1.5,0,2.485-1.243,2.485-3.164Z" transform="translate(-33.57 -17.737)"/><path class="a" d="M71.784,27.391c.143,1.279,1.386,2.119,3.084,2.119,1.627,0,2.8-.84,2.8-1.993,0-1-.706-1.6-2.378-2.011l-1.672-.4c-2.368-.572-3.468-1.68-3.468-3.477,0-2.225,1.939-3.754,4.693-3.754,2.725,0,4.594,1.529,4.657,3.754H77.549c-.117-1.287-1.181-2.064-2.736-2.064s-2.619.786-2.619,1.93c0,.912.68,1.448,2.342,1.859l1.421.349c2.646.626,3.746,1.689,3.746,3.575,0,2.413-1.922,3.924-4.979,3.924-2.86,0-4.792-1.476-4.916-3.809Z" transform="translate(-33.059 -17.871)"/><path class="a" d="M83.469,19.3v2.225h1.788v1.529H83.469v5.184c0,.805.358,1.181,1.144,1.181a6.032,6.032,0,0,0,.635-.045v1.519a5.3,5.3,0,0,1-1.072.089c-1.9,0-2.646-.715-2.646-2.539v-5.39H80.163V21.525H81.53V19.3Z" transform="translate(-32.659 -17.816)"/><path class="a" d="M86.065,26.149c0-2.959,1.743-4.818,4.46-4.818s4.461,1.859,4.461,4.818-1.725,4.818-4.461,4.818S86.065,29.116,86.065,26.149Zm6.954,0c0-2.03-.93-3.228-2.494-3.228s-2.493,1.207-2.493,3.228c0,2.038.929,3.227,2.493,3.227s2.494-1.189,2.494-3.227Z" transform="translate(-32.43 -17.737)"/><path class="a" d="M96.186,21.446h1.841v1.6h.045a2.243,2.243,0,0,1,2.262-1.7,2.977,2.977,0,0,1,.661.072v1.805a2.7,2.7,0,0,0-.867-.117,1.945,1.945,0,0,0-2.011,2.164V30.85h-1.93Z" transform="translate(-32.039 -17.737)"/><path class="a" d="M109.7,28.088c-.26,1.707-1.922,2.879-4.049,2.879-2.736,0-4.434-1.833-4.434-4.773s1.707-4.863,4.352-4.863c2.6,0,4.238,1.787,4.238,4.638v.661h-6.642v.117a2.449,2.449,0,0,0,2.53,2.664,2.128,2.128,0,0,0,2.172-1.323Zm-6.525-2.807h4.7A2.261,2.261,0,0,0,105.57,22.9a2.381,2.381,0,0,0-2.395,2.387Z" transform="translate(-31.845 -17.737)"/></g><g transform="translate(336.264 617.205)"><g transform="translate(0 0)"><path class="a" d="M37.91,8.731a2.742,2.742,0,0,1,2.916,3.079c0,1.98-1.07,3.118-2.916,3.118H35.671v-6.2Zm-1.276,5.321H37.8a1.948,1.948,0,0,0,2.044-2.229A1.954,1.954,0,0,0,37.8,9.607H36.634Z" transform="translate(-35.671 -8.426)"/><path class="a" d="M41.681,12.535a2.216,2.216,0,1,1,4.411,0,2.216,2.216,0,1,1-4.411,0Zm3.462,0c0-1.014-.455-1.607-1.255-1.607s-1.254.593-1.254,1.607.451,1.61,1.254,1.61,1.255-.592,1.255-1.61Z" transform="translate(-35.439 -8.372)"/><path class="a" d="M51.767,14.872h-.958l-.967-3.445H49.77l-.963,3.445h-.948l-1.289-4.677h.936l.838,3.569h.069l.962-3.569h.886l.962,3.569h.073l.834-3.569h.923Z" transform="translate(-35.249 -8.369)"/><path class="a" d="M53.854,10.2h.889v.743h.069a1.4,1.4,0,0,1,1.4-.833,1.521,1.521,0,0,1,1.619,1.74v3.028H56.9v-2.8c0-.752-.327-1.125-1.009-1.125a1.073,1.073,0,0,0-1.117,1.185v2.736h-.923Z" transform="translate(-34.968 -8.373)"/><path class="a" d="M59.094,8.437h.923v6.5h-.923Z" transform="translate(-34.765 -8.437)"/><path class="a" d="M61.218,12.535a2.216,2.216,0,1,1,4.412,0,2.216,2.216,0,1,1-4.412,0Zm3.462,0c0-1.014-.455-1.607-1.255-1.607s-1.254.593-1.254,1.607.451,1.61,1.254,1.61,1.255-.592,1.255-1.61Z" transform="translate(-34.683 -8.372)"/><path class="a" d="M66.4,13.553c0-.842.627-1.327,1.74-1.4l1.267-.073v-.4c0-.494-.327-.773-.958-.773-.515,0-.872.189-.975.52h-.894c.094-.8.85-1.319,1.911-1.319,1.173,0,1.834.584,1.834,1.572v3.2h-.889v-.657h-.073a1.574,1.574,0,0,1-1.4.734,1.413,1.413,0,0,1-1.559-1.4Zm3.006-.4v-.391l-1.142.073c-.644.043-.936.262-.936.675s.365.666.867.666a1.1,1.1,0,0,0,1.211-1.022Z" transform="translate(-34.483 -8.372)"/><path class="a" d="M71.348,12.6c0-1.478.76-2.414,1.941-2.414a1.541,1.541,0,0,1,1.434.821h.069V8.437h.923v6.5h-.884V14.2h-.073a1.623,1.623,0,0,1-1.469.816C72.1,15.017,71.348,14.081,71.348,12.6Zm.954,0c0,.992.468,1.589,1.25,1.589s1.259-.606,1.259-1.585-.486-1.589-1.259-1.589-1.25.6-1.25,1.585Z" transform="translate(-34.291 -8.437)"/><path class="a" d="M79.23,12.535a2.216,2.216,0,1,1,4.411,0,2.216,2.216,0,1,1-4.411,0Zm3.462,0c0-1.014-.455-1.607-1.255-1.607s-1.254.593-1.254,1.607.451,1.61,1.254,1.61S82.692,13.553,82.692,12.535Z" transform="translate(-33.987 -8.372)"/><path class="a" d="M84.669,10.2h.889v.743h.069a1.4,1.4,0,0,1,1.4-.833,1.521,1.521,0,0,1,1.619,1.74v3.028h-.923v-2.8c0-.752-.327-1.125-1.009-1.125a1.073,1.073,0,0,0-1.117,1.185v2.736h-.923Z" transform="translate(-33.776 -8.373)"/><path class="a" d="M93.577,9.074v1.186h1.013v.777H93.577v2.4c0,.49.2.7.661.7a3.081,3.081,0,0,0,.352-.021v.769a3.028,3.028,0,0,1-.5.047c-1.026,0-1.435-.361-1.435-1.263V11.037h-.742v-.777h.742V9.074Z" transform="translate(-33.496 -8.412)"/><path class="a" d="M95.7,8.437h.915v2.577h.073a1.439,1.439,0,0,1,1.426-.838,1.541,1.541,0,0,1,1.611,1.744v3.02h-.924V12.148c0-.747-.348-1.125-1-1.125a1.093,1.093,0,0,0-1.178,1.186V14.94H95.7Z" transform="translate(-33.349 -8.437)"/><path class="a" d="M104.918,13.612a1.9,1.9,0,0,1-2.027,1.353,2.124,2.124,0,0,1-2.16-2.414,2.157,2.157,0,0,1,2.156-2.444c1.3,0,2.086.889,2.086,2.358v.322h-3.3v.052a1.236,1.236,0,0,0,1.246,1.34,1.121,1.121,0,0,0,1.113-.567Zm-3.247-1.507h2.362a1.128,1.128,0,0,0-1.151-1.212,1.2,1.2,0,0,0-1.211,1.212Z" transform="translate(-33.156 -8.372)"/></g></g></g></svg>
