<svg xmlns="http://www.w3.org/2000/svg" xmlns:xlink="http://www.w3.org/1999/xlink" width="118.198" height="27.801" viewBox="0 0 118.198 27.801"><defs><style>.a{fill:#4e4f72;}.b{fill:url(#a);}.c{fill:url(#b);}.d{fill:url(#c);}.e{fill:url(#d);}.f{opacity:0.2;}.g{opacity:0.12;}.h{fill:#fff;opacity:0.25;}</style><linearGradient id="a" x1="0.915" y1="6.614" x2="-0.383" y2="5.945" gradientUnits="objectBoundingBox"><stop offset="0" stop-color="#00a0ff"/><stop offset="0.007" stop-color="#00a1ff"/><stop offset="0.26" stop-color="#00beff"/><stop offset="0.512" stop-color="#00d2ff"/><stop offset="0.76" stop-color="#00dfff"/><stop offset="1" stop-color="#00e3ff"/></linearGradient><linearGradient id="b" x1="1.076" y1="17.098" x2="-1.305" y2="17.098" gradientUnits="objectBoundingBox"><stop offset="0" stop-color="#ffe000"/><stop offset="0.409" stop-color="#ffbd00"/><stop offset="0.775" stop-color="orange"/><stop offset="1" stop-color="#ff9c00"/></linearGradient><linearGradient id="c" x1="0.862" y1="10.863" x2="-0.501" y2="9.093" gradientUnits="objectBoundingBox"><stop offset="0" stop-color="#ff3a44"/><stop offset="1" stop-color="#c31162"/></linearGradient><linearGradient id="d" x1="-0.188" y1="13.583" x2="0.421" y2="12.793" gradientUnits="objectBoundingBox"><stop offset="0" stop-color="#32a071"/><stop offset="0.068" stop-color="#2da771"/><stop offset="0.476" stop-color="#15cf74"/><stop offset="0.801" stop-color="#06e775"/><stop offset="1" stop-color="#00f076"/></linearGradient></defs><g transform="translate(-1544.813 -1001.389)"><g transform="translate(1576.469 1001.388)"><path class="a" d="M57.525,20.3a2.756,2.756,0,0,1-.758,2.038,2.959,2.959,0,0,1-2.243.9,3.208,3.208,0,0,1-2.247-5.461,3.071,3.071,0,0,1,2.247-.917,3.161,3.161,0,0,1,1.254.255,2.512,2.512,0,0,1,.954.683l-.536.536a2.065,2.065,0,0,0-1.672-.723,2.361,2.361,0,0,0-2.371,2.438,2.4,2.4,0,0,0,4.076,1.757,1.925,1.925,0,0,0,.512-1.237H54.524v-.733h2.959A2.6,2.6,0,0,1,57.525,20.3Z" transform="translate(-51.352 -16.866)"/><path class="a" d="M62.09,17.75H59.309v1.936h2.507v.733H59.309v1.936H62.09v.75H58.525V17H62.09Z" transform="translate(-51.226 -16.864)"/><path class="a" d="M65.322,23.105h-.786V17.75h-1.7V17h4.2v.75H65.322Z" transform="translate(-51.15 -16.864)"/><path class="a" d="M69.938,23.105V17h.784v6.105Z" transform="translate(-51.026 -16.864)"/><path class="a" d="M74.171,23.105h-.785V17.75H71.681V17h4.2v.75H74.171Z" transform="translate(-50.995 -16.864)"/><path class="a" d="M83.7,22.319a3.17,3.17,0,0,1-4.476,0,3.3,3.3,0,0,1,0-4.528,3.16,3.16,0,0,1,4.472,0,3.289,3.289,0,0,1,0,4.524Zm-3.9-.512a2.349,2.349,0,0,0,3.317,0,2.6,2.6,0,0,0,0-3.5,2.349,2.349,0,0,0-3.317,0,2.6,2.6,0,0,0,0,3.5Z" transform="translate(-50.878 -16.866)"/><path class="a" d="M85.575,23.105V17h.955L89.5,21.749h.034L89.5,20.573V17h.785v6.105h-.818l-3.1-4.98h-.034L86.36,19.3v3.8Z" transform="translate(-50.751 -16.864)"/></g><path class="a" d="M78.612,31.835a4.328,4.328,0,1,0,4.344,4.328A4.266,4.266,0,0,0,78.612,31.835Zm0,6.95a2.629,2.629,0,1,1,2.442-2.622A2.5,2.5,0,0,1,78.612,38.785Zm-9.477-6.95a4.328,4.328,0,1,0,4.344,4.328A4.266,4.266,0,0,0,69.135,31.835Zm0,6.95a2.629,2.629,0,1,1,2.442-2.622A2.5,2.5,0,0,1,69.135,38.785ZM57.862,33.163V35h4.393a3.832,3.832,0,0,1-1,2.311,4.5,4.5,0,0,1-3.394,1.344,4.885,4.885,0,0,1,0-9.77A4.681,4.681,0,0,1,61.173,30.2l1.3-1.3a6.406,6.406,0,0,0-4.606-1.853,6.722,6.722,0,1,0,0,13.443A6.142,6.142,0,0,0,62.55,38.6a6.067,6.067,0,0,0,1.59-4.3,5.932,5.932,0,0,0-.1-1.147Zm46.1,1.426a4.022,4.022,0,0,0-3.7-2.754,4.112,4.112,0,0,0-4.081,4.328,4.235,4.235,0,0,0,4.3,4.328,4.3,4.3,0,0,0,3.606-1.918l-1.475-.984a2.472,2.472,0,0,1-2.131,1.2,2.2,2.2,0,0,1-2.1-1.311l5.787-2.394Zm-5.9,1.443a2.374,2.374,0,0,1,2.262-2.525,1.674,1.674,0,0,1,1.607.918Zm-4.7,4.2h1.9V27.506h-1.9ZM90.243,32.8h-.065a3,3,0,0,0-2.278-.967,4.332,4.332,0,0,0,0,8.655,2.948,2.948,0,0,0,2.278-.984h.065v.624c0,1.656-.884,2.541-2.311,2.541a2.4,2.4,0,0,1-2.181-1.542l-1.656.689a4.124,4.124,0,0,0,3.836,2.557c2.229,0,4.115-1.312,4.115-4.508V32.1h-1.8Zm-2.18,5.983a2.632,2.632,0,0,1,0-5.246,2.439,2.439,0,0,1,2.311,2.64A2.418,2.418,0,0,1,88.064,38.785Zm24.809-11.278h-4.549v12.72h1.9V35.408h2.652a3.957,3.957,0,1,0,0-7.9Zm.049,6.131h-2.7v-4.36h2.7a2.181,2.181,0,1,1,0,4.36Zm11.734-1.827a3.567,3.567,0,0,0-3.388,1.947l1.686.7a1.8,1.8,0,0,1,1.735-.933,1.828,1.828,0,0,1,2,1.637v.13a4.2,4.2,0,0,0-1.98-.49c-1.816,0-3.666,1-3.666,2.863a2.939,2.939,0,0,0,3.158,2.8,2.679,2.679,0,0,0,2.423-1.244h.065v.982h1.833V35.329C128.518,33.071,126.833,31.811,124.656,31.811Zm-.229,6.971c-.623,0-1.49-.31-1.49-1.08,0-.982,1.08-1.358,2.013-1.358a3.387,3.387,0,0,1,1.735.425A2.3,2.3,0,0,1,124.427,38.782Zm10.768-6.693L133.018,37.6h-.065l-2.259-5.515h-2.045l3.387,7.708-1.931,4.288h1.98l5.221-12Zm-17.1,8.138h1.9V27.507h-1.9Z" transform="translate(1525.704 984.814)"/><g transform="translate(1544.813 1001.781)"><path class="b" d="M20.443,17.539a2.042,2.042,0,0,0-.47,1.43v22.5a2.04,2.04,0,0,0,.47,1.43l.075.073L33.125,30.37v-.3L20.518,17.465Z" transform="translate(-19.973 -17.135)"/><path class="c" d="M37.1,34.429l-4.2-4.2v-.3l4.2-4.2.095.055,4.979,2.829c1.422.808,1.422,2.13,0,2.938L37.2,34.374Z" transform="translate(-19.746 -16.99)"/><path class="d" d="M37.415,34.3l-4.3-4.3L20.435,42.683a1.656,1.656,0,0,0,2.116.062L37.415,34.3" transform="translate(-19.965 -16.915)"/><path class="e" d="M37.415,25.929,22.551,17.483a1.656,1.656,0,0,0-2.116.062L33.117,30.227Z" transform="translate(-19.965 -17.14)"/><g transform="translate(0 17.29)"><path class="f" d="M37.32,34.132l-14.77,8.392a1.694,1.694,0,0,1-2.039.011h0l-.076.075h0l.075.074h0a1.694,1.694,0,0,0,2.039-.011l14.864-8.446Z" transform="translate(-19.965 -34.132)"/><path class="g" d="M20.443,42.343a2.04,2.04,0,0,1-.47-1.43v.15a2.038,2.038,0,0,0,.47,1.429l.076-.075Z" transform="translate(-19.973 -34.013)"/></g><path class="g" d="M42.1,31.322,37.029,34.2l.095.095L42.1,31.47A1.786,1.786,0,0,0,43.169,30h0A1.893,1.893,0,0,1,42.1,31.322Z" transform="translate(-19.674 -16.915)"/><path class="h" d="M22.559,17.631,42.4,28.906a1.893,1.893,0,0,1,1.066,1.321h0A1.783,1.783,0,0,0,42.4,28.757L22.559,17.483c-1.423-.808-2.586-.136-2.586,1.492v.15C19.973,17.5,21.136,16.824,22.559,17.631Z" transform="translate(-19.973 -17.14)"/></g></g></svg>